<?xml version="1.0" encoding="UTF-8" standalone="no"?>
<!-- Generator: Adobe Illustrator 27.5.0, SVG Export Plug-In . SVG Version: 6.00 Build 0)  -->

<svg
   version="1.1"
   x="0px"
   y="0px"
   viewBox="0 0 500 500"
   style="enable-background:new 0 0 500 500;"
   xml:space="preserve"
   id="svg1726"
   sodipodi:docname="code-icon.svg"
   inkscape:version="1.2.2 (b0a84865, 2022-12-01)"
   xmlns:inkscape="http://www.inkscape.org/namespaces/inkscape"
   xmlns:sodipodi="http://sodipodi.sourceforge.net/DTD/sodipodi-0.dtd"
   xmlns="http://www.w3.org/2000/svg"
   xmlns:svg="http://www.w3.org/2000/svg"><defs
   id="defs1730" /><sodipodi:namedview
   id="namedview1728"
   pagecolor="#ffffff"
   bordercolor="#000000"
   borderopacity="0.25"
   inkscape:showpageshadow="2"
   inkscape:pageopacity="0.0"
   inkscape:pagecheckerboard="0"
   inkscape:deskcolor="#d1d1d1"
   showgrid="false"
   inkscape:zoom="1.2402653"
   inkscape:cx="198.7478"
   inkscape:cy="231.80524"
   inkscape:window-width="1390"
   inkscape:window-height="905"
   inkscape:window-x="0"
   inkscape:window-y="34"
   inkscape:window-maximized="0"
   inkscape:current-layer="svg1726" />

<g
   id="OBJECTS">
	
	<g
   id="g1649"
   transform="matrix(3.072466,0,0,2.9933887,-175.01269,-781.40051)">
		
		<g
   id="g1647">
			<g
   id="g1635">
				<path
   style="clip-rule:evenodd;fill:#0ea5e9;fill-rule:evenodd;fill-opacity:1"
   d="m 72.401,337.406 c 3.323,-0.091 6.421,-0.343 8.618,-1.044 1.573,-0.502 2.628,-1.477 2.628,-3.393 v -34.915 c 0,-11.09 6.528,-18.413 17.847,-18.413 h 8.018 c 3.312,0 6.014,2.702 6.014,6.014 v 2.179 c 0,3.313 -2.702,6.014 -6.014,6.014 h -8.018 c -3.046,0 -3.64,0.539 -3.64,4.205 v 34.915 c 0,5.089 -1.4,8.835 -3.825,11.592 2.424,2.757 3.824,6.502 3.824,11.591 v 34.915 c 0,3.665 0.593,4.205 3.64,4.205 h 8.019 c 3.312,0 6.014,2.702 6.014,6.014 v 2.179 c 0,3.312 -2.702,6.014 -6.014,6.014 h -8.019 c -11.319,0 -17.847,-7.323 -17.847,-18.412 v -34.915 c 0,-1.916 -1.054,-2.891 -2.628,-3.393 -2.196,-0.701 -5.295,-0.953 -8.617,-1.044 -3.254,-0.089 -5.85,-2.757 -5.85,-6.012 v -2.285 c 0,-3.254 2.597,-5.922 5.85,-6.011 z"
   id="path1631" />
				<path
   style="clip-rule:evenodd;fill:#0ea5e9;fill-rule:evenodd;fill-opacity:1"
   d="m 204.259,337.406 c -3.322,-0.091 -6.421,-0.343 -8.618,-1.044 -1.573,-0.502 -2.628,-1.477 -2.628,-3.393 v -34.915 c 0,-11.09 -6.528,-18.413 -17.847,-18.413 h -8.018 c -3.312,0 -6.014,2.702 -6.014,6.014 v 2.179 c 0,3.313 2.702,6.014 6.014,6.014 h 8.018 c 3.046,0 3.64,0.539 3.64,4.205 v 34.915 c 0,5.089 1.4,8.835 3.825,11.592 -2.425,2.757 -3.825,6.502 -3.825,11.591 v 34.915 c 0,3.665 -0.593,4.205 -3.64,4.205 h -8.019 c -3.312,0 -6.014,2.702 -6.014,6.014 v 2.179 c 0,3.312 2.702,6.014 6.014,6.014 h 8.019 c 11.319,0 17.847,-7.323 17.847,-18.412 v -34.915 c 0,-1.916 1.055,-2.891 2.628,-3.393 2.197,-0.701 5.296,-0.953 8.617,-1.044 3.254,-0.089 5.85,-2.757 5.85,-6.012 v -2.285 c 0.001,-3.254 -2.595,-5.922 -5.849,-6.011 z"
   id="path1633" />
			</g>
			<g
   id="g1645">
				<path
   style="clip-rule:evenodd;fill:#ffb503;fill-rule:evenodd;fill-opacity:1"
   d="m 115.597,326.112 h 45.466 c 3.312,0 6.014,2.702 6.014,6.014 v 1.713 c 0,3.313 -2.702,6.014 -6.014,6.014 h -45.466 c -3.313,0 -6.014,-2.702 -6.014,-6.014 v -1.713 c 0,-3.312 2.702,-6.014 6.014,-6.014 z"
   id="path1637" />
				<path
   style="clip-rule:evenodd;fill:#ffb503;fill-rule:evenodd;fill-opacity:1"
   d="m 115.597,349.268 h 45.466 c 3.312,0 6.014,2.701 6.014,6.014 v 1.713 c 0,3.312 -2.702,6.014 -6.014,6.014 h -45.466 c -3.313,0 -6.014,-2.702 -6.014,-6.014 v -1.713 c 0,-3.313 2.702,-6.014 6.014,-6.014 z"
   id="path1639" />
				<path
   style="clip-rule:evenodd;fill:#ffb503;fill-rule:evenodd;fill-opacity:1"
   d="m 138.33,302.957 h 22.733 c 3.312,0 6.014,2.702 6.014,6.014 v 1.713 c 0,3.312 -2.702,6.014 -6.014,6.014 H 138.33 c -3.312,0 -6.014,-2.702 -6.014,-6.014 v -1.713 c 0,-3.313 2.702,-6.014 6.014,-6.014 z"
   id="path1641" />
				<path
   style="clip-rule:evenodd;fill:#ffb503;fill-rule:evenodd;fill-opacity:1"
   d="m 115.597,372.423 h 22.733 c 3.313,0 6.014,2.702 6.014,6.014 v 1.713 c 0,3.312 -2.702,6.014 -6.014,6.014 h -22.733 c -3.312,0 -6.014,-2.701 -6.014,-6.014 v -1.713 c 0,-3.312 2.702,-6.014 6.014,-6.014 z"
   id="path1643" />
			</g>
		</g>
	</g>
	
	
</g>
</svg>
