<?xml version="1.0" encoding="UTF-8" standalone="no"?>
<svg
   width="110.24535"
   height="15.384501"
   viewBox="0 0 110.24535 15.384501"
   fill="none"
   version="1.1"
   id="svg25"
   sodipodi:docname="Base64 Image.svg"
   xmlns:inkscape="http://www.inkscape.org/namespaces/inkscape"
   xmlns:sodipodi="http://sodipodi.sourceforge.net/DTD/sodipodi-0.dtd"
   xmlns="http://www.w3.org/2000/svg"
   xmlns:svg="http://www.w3.org/2000/svg">
  <sodipodi:namedview
     id="namedview27"
     pagecolor="#ffffff"
     bordercolor="#000000"
     borderopacity="0.25"
     inkscape:showpageshadow="2"
     inkscape:pageopacity="0.0"
     inkscape:pagecheckerboard="0"
     inkscape:deskcolor="#d1d1d1"
     showgrid="false" />
  <path
     fill-rule="evenodd"
     clip-rule="evenodd"
     d="m 57.78325,-7.3801097 c 1.4316,2.74872 2.243,9.36251 3.9668,9.63231 0.8133,0.1279 5.8868,-6.53768 10.5173,-10.75316 -5.6938,8.86955998 -8.7443,18.04476 -10.3939,26.6655597 -4.9028,-7.2058 -5.3421,-16.3809997 -4.0902,-25.5447097 z"
     fill="url(#paint1_linear_805_4876)"
     id="path4"
     style="fill:url(#paint1_linear_805_4876)" />
  <path
     fill-rule="evenodd"
     clip-rule="evenodd"
     d="M 7.82984,15.3845 C 6.15101,15.3845 4.72959,15.067 3.56573,14.4322 2.40187,13.7973 1.51657,12.9086 0.90997,11.7658 0.303369,10.623 0,9.2828003 0,7.7451003 c 0,-1.58 0.313942,-2.9485 0.94169,-4.1053 0.62775,-1.1569 1.53419,-2.0527 2.7192,-2.68750002 C 4.84604,0.31740028 6.27084,2.7770996e-7 7.93557,2.7770996e-7 8.9796,2.7770996e-7 9.97065,0.14800028 10.90875,0.44440028 c 0.9382,0.2963 1.7035,0.69130002 2.2961,1.18500002 l -1.058,2.5606 c -0.6491,-0.4798 -1.3121,-0.8218 -1.9893,-1.0263 -0.67708,-0.2047 -1.41069,-0.3069 -2.20084,-0.3069 -1.50952,0 -2.64166,0.4197 -3.39642,1.2592 -0.75476,0.8393 -1.13214,2.0491 -1.13214,3.6291 0,1.5941 0.38443,2.8003997 1.15328,3.6185997 0.769,0.8183 1.90819,1.2274 3.41771,1.2274 0.80411,0 1.65051,-0.127 2.53931,-0.3809 V 9.2899003 H 7.32192 v -2.37 h 5.92533 V 14.2418 c -0.7336,0.3668 -1.5802,0.6489 -2.5395,0.8464 -0.9593,0.1975 -1.9186,0.2963 -2.87791,0.2963 z m 75.77331,0 V 0.46550028 h 10.221 V 3.0261003 h -7.0891 v 3.4916 h 6.6236 v 2.5817 h -6.6236 V 12.8239 h 7.0891 v 2.5606 z m -14.7286,0 V 0.46550028 h 6.8141 c 1.6648,0 2.9485,0.4021 3.8514,1.20630002 0.9029,0.8041 1.3543,1.9257 1.3543,3.3647 0,1.1144 -0.2856,2.042 -0.857,2.7826 -0.5713,0.7407 -1.3861,1.2451 -2.4441,1.5131 0.7477,0.2258 1.3613,0.7689997 1.8411,1.6294997 l 2.4123,4.4228 h -3.6186 l -2.5818,-4.7615 c -0.2116,-0.3809 -0.4725,-0.6452997 -0.7829,-0.7934997 -0.3103,-0.1481 -0.6771,-0.2222 -1.1005,-0.2222 h -1.6082 V 15.3845 Z m 27.5313,0 V 0.46550028 h 5.8405 c 2.54,0 4.508,0.64550002 5.904,1.93620002 1.397,1.2909 2.095,3.1285 2.095,5.5127 0,2.3842997 -0.698,4.2251997 -2.095,5.5230997 -1.396,1.2979 -3.364,1.947 -5.904,1.947 z M 16.14635,15.1516 V 0.23280028 h 10.2211 V 2.7934003 h -7.0892 v 3.4915 h 6.6236 v 2.5818 h -6.6236 V 12.5911 h 7.0892 v 2.5605 z m 16.3579,0 V 2.9414003 h -4.9306 V 0.23280028 h 13.1413 V 2.9414003 h -4.9306 V 15.1516 Z m 9.8191,0 V 0.23280028 h 3.2799 V 6.2215003 h 6.9411 V 0.23280028 h 3.2801 V 15.1516 h -3.2801 V 8.9513003 h -6.9411 V 15.1516 Z m 57.363,-2.4547 h 2.37 c 3.174,0 4.761,-1.5941 4.761,-4.7824997 0,-3.1742 -1.587,-4.7614 -4.761,-4.7614 h -2.37 z M 72.15465,7.2372003 h 2.9414 c 1.7635,0 2.6453,-0.7054 2.6453,-2.1161 0,-1.3966 -0.8818,-2.095 -2.6453,-2.095 h -2.9414 z"
     fill="url(#paint2_linear_805_4876)"
     id="path6"
     style="fill:#ffffff" />
  <defs
     id="defs23">
    <linearGradient
       id="paint1_linear_805_4876"
       x1="57.6978"
       y1="13.8793"
       x2="64.521202"
       y2="15.4583"
       gradientUnits="userSpaceOnUse"
       gradientTransform="translate(-0.44165,-10.6262)">
      <stop
         stop-color="#3A80F9"
         id="stop13" />
      <stop
         offset="1"
         stop-color="#0047C3"
         id="stop15" />
    </linearGradient>
  </defs>
</svg>
