<?xml version="1.0" encoding="UTF-8" standalone="no"?>
<svg
   inkscape:version="1.2 (dc2aedaf03, 2022-05-15)"
   sodipodi:docname="servitalleres-logo.svg"
   viewBox="0 0 7792.5166 833.20556"
   height="833.20557"
   width="7792.5166"
   id="svg2"
   version="1.1"
   xmlns:inkscape="http://www.inkscape.org/namespaces/inkscape"
   xmlns:sodipodi="http://sodipodi.sourceforge.net/DTD/sodipodi-0.dtd"
   xmlns="http://www.w3.org/2000/svg"
   xmlns:svg="http://www.w3.org/2000/svg"
   xmlns:rdf="http://www.w3.org/1999/02/22-rdf-syntax-ns#"
   xmlns:cc="http://creativecommons.org/ns#"
   xmlns:dc="http://purl.org/dc/elements/1.1/">
  <metadata
     id="metadata8">
    <rdf:RDF>
      <cc:Work
         rdf:about="">
        <dc:format>image/svg+xml</dc:format>
        <dc:type
           rdf:resource="http://purl.org/dc/dcmitype/StillImage" />
      </cc:Work>
    </rdf:RDF>
  </metadata>
  <defs
     id="defs6" />
  <sodipodi:namedview
     inkscape:current-layer="g10"
     inkscape:window-maximized="1"
     inkscape:window-y="-8"
     inkscape:window-x="-8"
     inkscape:cy="-61.455879"
     inkscape:cx="3541.395"
     inkscape:zoom="0.13017469"
     fit-margin-bottom="0"
     fit-margin-right="0"
     fit-margin-left="0"
     fit-margin-top="0"
     showgrid="false"
     id="namedview4"
     inkscape:window-height="697"
     inkscape:window-width="1366"
     inkscape:pageshadow="2"
     inkscape:pageopacity="0"
     guidetolerance="10"
     gridtolerance="10"
     objecttolerance="10"
     borderopacity="1"
     bordercolor="#666666"
     pagecolor="#ffffff"
     inkscape:showpageshadow="2"
     inkscape:pagecheckerboard="0"
     inkscape:deskcolor="#d1d1d1" />
  <g
     transform="translate(264.57719,-506.60455)"
     id="g10"
     inkscape:label="Image"
     inkscape:groupmode="layer">
    <path
       id="path14"
       d="m -126.45599,1338.8504 c -35.08075,-1.8764 -61.00712,-7.4494 -82.72801,-17.7828 -34.71351,-16.5144 -51.67498,-42.5102 -54.61946,-83.7119 -1.01661,-14.2253 0.0499,-31.4682 3.54756,-57.3542 18.94442,-140.2078 31.86612,-234.04046 32.22973,-234.04046 0.24693,0 0.91958,2.27851 1.49479,5.06336 1.49177,7.22245 5.76365,17.34607 10.23849,24.26347 16.93741,26.18253 50.59221,41.38893 96.45759,43.58283 5.74727,0.2749 10.44958,0.7507 10.44958,1.0574 0,0.9687 -23.5247,186.4504 -23.94472,188.7933 l -0.40075,2.2354 H 95.071518 c 157.026412,0 228.802712,-0.2637 228.802712,-0.8406 0,-0.4623 6.03557,-51.7829 13.41236,-114.0457 7.3768,-62.2628 13.41237,-114.00289 13.41237,-114.97792 v -1.77278 l -224.14903,-0.27113 c -204.874442,-0.24783 -224.813072,-0.38771 -231.87129,-1.62674 -33.86386,-5.94459 -55.50899,-15.41198 -73.12575,-31.98456 -27.64787,-26.00913 -38.71857,-66.8891 -32.10773,-118.56186 0.62918,-4.91786 5.38036,-44.97205 10.55819,-89.00931 5.17784,-44.03726 10.50123,-86.4691 11.82976,-94.29297 7.78435,-45.84279 20.11854,-75.58973 39.29259,-94.76378 23.9804,-23.98039 64.569558,-37.5254 122.694758,-40.94445 10.03055,-0.59001 395.675842,-0.85401 1247.537542,-0.85401 h 1233.0189 l -2.7873,5.08044 c -4.2074,7.66877 -8.2617,18.83781 -10.2733,28.30121 -1.4358,6.75509 -1.8084,11.21085 -1.8302,21.89354 -0.05,24.09079 4.4686,40.018 16.1978,57.10415 l 4.3246,6.29975 H 1204.5492 c -1003.64873,0 -1255.525742,0.2038 -1255.790722,1.01608 -0.31526,0.96651 -22.68266,204.7211 -23.73618,216.22355 l -0.50255,5.48687 216.137872,0.003 c 135.1197,0.002 221.01307,0.30814 229.14379,0.81722 39.20476,2.45472 68.40019,9.72361 86.76115,21.60126 25.06798,16.21639 35.74175,42.87817 34.46803,86.09685 -0.47375,16.07472 -1.44228,25.29594 -4.56772,43.48859 -0.88327,5.1414 -4.91395,47.5732 -8.95707,94.2929 -7.86354,90.8665 -7.89222,91.0935 -14.70377,116.4358 -7.30102,27.1634 -17.37403,51.4149 -27.9604,67.3169 -24.63024,36.9975 -67.58205,55.7258 -137.79212,60.0817 -11.83992,0.7346 -410.10703,1.0165 -423.5055,0.2997 z m 675.93551,-1.6942 c 0.22004,-1.2302 17.97378,-139.0428 39.45283,-306.2502 21.47904,-167.20745 39.8539,-310.23201 40.83308,-317.83235 l 1.78027,-13.8188 248.1287,-0.20453 248.1287,-0.20454 v 1.71707 c 0,1.32379 -12.0643,67.90746 -14.3073,78.96296 l -0.4535,2.23539 H 922.4887 c -104.8045,0 -190.5535,0.29082 -190.5535,0.64627 0,0.88302 -20.1612,176.90817 -20.7578,181.2335 l -0.4764,3.4547 h 110.8711 c 60.9791,0 111.0437,0.17249 111.2544,0.38331 0.3838,0.38374 -11.1545,79.59842 -11.8731,81.51342 -0.3024,0.806 -23.3156,1.016 -111.3267,1.016 H 698.68115 l -0.42553,2.6419 c -0.23403,1.453 -1.52218,11.6037 -2.86245,22.5571 -14.19808,116.0332 -20.4384,166.7275 -20.83777,169.2803 l -0.47691,3.0483 H 867.6131 c 154.3127,0 193.5244,0.2059 193.4842,1.0161 -0.028,0.5588 -3.4253,21.1346 -7.5502,45.7239 l -7.4999,44.7079 -248.4839,0.2045 -248.4838,0.2045 z m 585.26778,0 c 0.5627,-3.1419 84.9102,-636.37762 84.9102,-637.46177 0,-0.63879 60.2845,-0.81434 215.6139,-0.62785 200.7709,0.24104 216.2177,0.35685 224.3858,1.68219 27.1152,4.39966 44.9586,14.15548 56.5707,30.92984 8.382,12.10829 12.6984,32.89578 10.7371,51.70833 -4.6993,45.07509 -23.0752,206.06604 -24.0711,210.88777 -8.6074,41.67099 -35.8603,69.94219 -77.6291,80.53009 -17.42,4.4158 -20.9558,4.6916 -66.7214,5.2059 l -42.7567,0.4804 11.1486,15.0381 c 40.5284,54.6679 174.9133,236.0983 177.4699,239.5988 l 3.1208,4.2729 -59.564,-0.2085 -59.564,-0.2085 -92.7519,-129.2464 -92.7519,-129.2464 -62.5897,-0.2082 -62.5896,-0.2082 -2.1546,16.872 c -8.111,63.515 -30.8162,238.3818 -31.1892,240.2082 l -0.4567,2.2354 h -54.7839 -54.7838 l 0.4006,-2.2354 z m 431.5994,-341.04972 c 12.5632,-2.60715 16.7966,-4.26995 20.4754,-8.04236 5.9675,-6.11937 11.2309,-16.78454 13.5586,-27.4733 0.2436,-1.11873 2.4679,-32.57682 4.9428,-69.90686 2.475,-37.33004 4.8684,-70.09751 5.3187,-72.8166 0.4503,-2.7191 0.8183,-8.02308 0.8175,-11.78662 0,-8.70795 -1.312,-11.44144 -7.5079,-15.66151 -9.0059,-6.134 1.7926,-5.70617 -151.6246,-6.0072 -111.5674,-0.21891 -137.6583,-0.0723 -137.9397,0.77499 -0.4499,1.35515 -24.0417,208.55192 -24.0239,210.99172 l 0.014,1.85192 134.7333,-0.28734 c 121.6762,-0.25948 135.3635,-0.41811 141.2363,-1.63684 z m 397.9774,335.35832 c -5.9713,-19.466 -189.4761,-631.65267 -189.4761,-632.10712 0,-0.28009 28.7044,-0.50926 63.7876,-0.50926 h 63.7876 l 1.2188,4.26757 c 0.6704,2.34716 29.5965,109.24979 64.2805,237.56139 34.684,128.31162 63.6994,235.47462 64.4786,238.14002 l 1.4169,4.8461 38.3346,-74.3466 c 21.084,-40.8906 77.2898,-149.88254 124.9019,-242.2043 l 86.5675,-167.85775 56.1902,-0.2088 c 47.0168,-0.17471 56.1471,-0.0284 55.9262,0.89572 -0.1451,0.60749 -78.9091,144.72619 -175.031,320.26373 l -174.7671,319.1593 -39.5926,0.013 -39.5925,0.013 -2.4311,-7.9255 z m 408.2298,4.4764 c 0.2578,-1.9031 19.3396,-145.2046 42.4042,-318.4476 23.0646,-173.24298 42.1148,-315.8103 42.3338,-316.81622 l 0.3982,-1.82896 h 56.1673 56.1673 l -0.5631,5.08044 c -0.3097,2.79424 -19.4708,146.82472 -42.5803,320.06774 l -42.0172,314.9873 -56.3894,0.2088 -56.3894,0.2088 z m 414.3178,2.5915 c 0,-1.3405 96.6944,-705.70651 97.1606,-707.76218 l 0.4148,-1.82896 H 2748.5405 2612.634 l 1.6512,-1.82896 c 5.7397,-6.35768 14.062,-21.81589 17.6144,-32.71804 9.3095,-28.56996 6.1481,-59.52878 -8.2472,-80.76133 -1.7116,-2.52453 -3.3855,-5.04731 -3.7199,-5.60615 -0.4864,-0.81277 421.758,-1.01609 2110.1341,-1.01609 h 2110.7423 l -6.376,4.26757 c -13.3662,8.94651 -28.3301,26.07246 -37.4656,42.87891 -8.3258,15.31684 -17.0932,41.77743 -22.1196,66.75882 l -0.9203,4.57423 -124.5355,0.48412 c -68.4945,0.26626 -908.6053,1.0685 -1866.9128,1.78275 -958.3075,0.71426 -1742.4806,1.40197 -1742.6069,1.52824 -0.3372,0.33728 -2.5098,16.07618 -51.7907,375.20207 -24.8161,180.8434 -45.3395,330.1778 -45.6074,331.8544 l -0.4871,3.0482 h -77.5576 c -53.8649,0 -77.5577,-0.262 -77.5577,-0.8576 z m 296.1029,-0.1528 c 0.218,-0.562 81.0747,-144.595 179.6818,-320.0734 l 179.2855,-319.05165 53.2579,-0.20904 53.2581,-0.20906 2.4306,7.93133 c 6.5197,21.27471 189.4802,631.61032 189.4802,632.08482 0,0.3011 -28.0624,0.4538 -62.3608,0.3393 l -62.3608,-0.2083 -19.6221,-52.8366 -19.6221,-52.8366 -152.7334,-0.1624 -152.7335,-0.1624 -37.8474,52.999 -37.8475,52.999 -56.3314,0.2088 c -44.9652,0.1667 -56.2514,0 -55.9351,-0.8128 z m 462.3409,-191.4366 c 0.02,-0.3354 -15.618,-61.9555 -34.7502,-136.9337 -25.624,-100.41869 -35.02,-136.06555 -35.6749,-135.3429 -0.6559,0.72391 -132.9217,253.712 -141.2876,270.2444 l -1.3368,2.6418 h 106.5069 c 58.5788,0 106.5229,-0.2743 106.5426,-0.6096 z m 235.3251,190.2116 c 0.5558,-3.1023 84.9102,-636.36934 84.9102,-637.44012 0,-0.60494 17.0688,-0.86636 56.5659,-0.86636 h 56.566 l -0.4898,3.04826 c -0.6622,4.12263 -69.56,543.73312 -69.56,544.79772 0,0.5776 56.8709,0.8416 181.3347,0.8416 h 181.3347 l -0.4613,2.2354 c -0.2537,1.2294 -3.5756,21.0736 -7.3819,44.0982 -3.8063,23.0245 -7.1098,42.6858 -7.3411,43.6918 l -0.4204,1.8289 H 4017.9688 3780.24 Z m 530.61,-1.2193 c 0.2574,-1.9001 19.339,-145.199 42.4035,-318.442 23.0646,-173.24298 42.1148,-315.8103 42.3338,-316.81622 l 0.3982,-1.82896 h 54.3989 c 29.9194,0 54.5414,0.27434 54.7155,0.60965 0.2258,0.43476 -62.7801,518.23823 -66.3188,545.02963 l -0.4026,3.0483 h 181.1928 c 146.3647,0 181.1928,0.1993 181.1928,1.037 0,0.5704 -4.0238,21.1367 -8.9416,45.703 -4.9179,24.5663 -8.9416,44.7668 -8.9416,44.8901 0,0.1234 -106.3122,0.2242 -236.2493,0.2242 h -236.2494 z m 527.346,1.2206 c 0.022,-1.2302 19.1346,-145.2612 42.4725,-320.069 l 42.4326,-317.83235 246.9978,-0.20454 246.9978,-0.20454 -0.4454,1.83028 c -0.245,1.00666 -3.5771,18.8396 -7.4045,39.62876 -3.8275,20.78916 -7.1489,38.62151 -7.3808,39.62744 l -0.4217,1.82895 h -190.4833 -190.4834 l -0.5088,5.89331 c -0.6975,8.07864 -16.6122,169.86015 -17.232,175.17359 l -0.4978,4.26757 h 111.0152 111.0154 v 1.71575 c 0,1.32285 -12.0656,67.91218 -14.3074,78.96168 l -0.4535,2.2353 h -111.1881 -111.1883 l -0.4683,3.4547 c -0.2576,1.9001 -5.6059,45.3379 -11.8852,96.5284 -6.2793,51.1905 -11.596,94.0796 -11.8149,95.3091 l -0.398,2.2354 h 195.0686 c 155.5398,0 195.0583,0.2059 195.0182,1.0161 -0.028,0.5588 -3.4254,21.1346 -7.5503,45.7239 l -7.4998,44.7079 -249.7233,0.2045 -249.7232,0.2045 0.04,-2.2367 z m 618.8014,-1.2206 c 0.2573,-1.9001 19.3389,-145.199 42.4034,-318.442 23.0647,-173.24298 42.1149,-315.8103 42.3338,-316.81622 l 0.3983,-1.82896 208.2826,0.002 c 135.1941,0.002 212.1333,0.29569 219.2563,0.83898 46.7148,3.56313 72.2128,22.50216 78.4502,58.27008 0.6661,3.81944 1.2111,10.51203 1.2111,14.87242 0,12.6275 -22.9605,216.26845 -25.496,226.12909 -9.0343,35.13401 -30.6465,59.66681 -63.1069,71.63531 -9.408,3.4688 -14.8017,4.8878 -27.3386,7.192 -8.8628,1.6289 -13.1386,1.8108 -52.5964,2.2379 l -42.9494,0.4649 14.4352,19.5089 c 7.9393,10.7299 50.9515,68.783 95.5827,129.0069 44.6312,60.2239 81.1476,109.6972 81.1476,109.9408 0,0.2434 -24.5995,0.4279 -54.6655,0.4101 l -54.6656,-0.033 -92.9417,-129.62 -92.9418,-129.6202 h -66.9191 -66.919 l -0.4965,3.0482 c -0.7468,4.5853 -32.9741,254.0281 -32.9741,255.2231 0,0.827 -11.0225,1.0343 -54.9792,1.0343 h -54.9792 z m 422.4457,-338.78422 c 4.2473,-0.44286 11.7185,-1.78863 16.6027,-2.99061 8.4794,-2.08677 9.0665,-2.37189 13.0059,-6.31615 4.821,-4.827 8.4534,-11.2909 11.4386,-20.35465 1.9443,-5.90327 2.6888,-12.63499 8.2243,-74.36551 4.9951,-55.70431 6.0427,-70.06098 5.8419,-80.06774 -0.2233,-11.1304 -0.4217,-12.54147 -2.2768,-16.19079 -1.6156,-3.17816 -3.0859,-4.62542 -7.172,-7.05947 -2.827,-1.68395 -6.8507,-3.51812 -8.9416,-4.07592 -2.9457,-0.78583 -34.8532,-1.07928 -141.7059,-1.30327 l -137.9043,-0.28908 -0.499,3.89194 c -0.6928,5.4037 -20.7967,207.1505 -20.7967,208.69929 0,1.12661 13.1483,1.25388 128.2304,1.24124 78.826,-0.009 131.2055,-0.32431 135.9525,-0.81928 z m 205.2846,340.00352 c 0.5559,-3.1023 84.9102,-636.36934 84.9102,-637.44012 0,-0.61133 72.6221,-0.86636 246.7062,-0.86636 h 246.7061 v 1.71575 c 0,1.32285 -12.0655,67.91221 -14.3073,78.96164 l -0.4535,2.23539 h -190.5536 c -121.3755,0 -190.5535,0.28368 -190.5535,0.78139 0,0.42977 -4.0237,41.61208 -8.9415,91.51625 -4.9179,49.90417 -8.9416,91.2528 -8.9416,91.88584 0,0.98711 15.7975,1.15099 110.9568,1.15099 93.2972,0 110.9568,0.17688 110.9568,1.11137 0,1.74194 -14.6604,80.37756 -15.1255,81.12996 -0.2282,0.3693 -50.3015,0.6714 -111.274,0.6714 h -110.8591 l -0.4716,3.4547 c -0.2594,1.9001 -1.3766,11.868 -2.4827,22.1508 -1.106,10.2828 -5.6715,52.7091 -10.1455,94.2807 -4.4739,41.5716 -8.1344,76.0474 -8.1344,76.613 0,0.8264 38.0167,1.0284 193.5278,1.0284 h 193.5277 l -0.4613,2.2354 c -0.2537,1.2294 -3.5756,21.0736 -7.3819,44.0982 -3.8063,23.0245 -7.1098,42.6858 -7.341,43.6918 l -0.4205,1.8289 h -249.9219 -249.9218 z m 737.6452,1.3539 c -47.2216,-2.9894 -84.4877,-15.1635 -100.6927,-32.8944 -7.2784,-7.9637 -12.7624,-21.8608 -15.7011,-39.7888 -1.6,-9.7606 -1.3423,-48.6859 0.4278,-64.6232 2.0825,-18.75 5.4675,-40.1121 6.5209,-41.1521 0.7933,-0.7831 145.2531,-28.3023 145.6118,-27.7386 0.071,0.1117 -3.2574,17.5782 -7.3965,38.8144 -4.1392,21.2363 -7.5505,38.8857 -7.5807,39.221 -0.03,0.3354 107.6707,0.6097 239.3354,0.6097 164.3177,0 239.3904,-0.2636 239.3904,-0.8406 0,-0.4623 6.0355,-51.7829 13.4123,-114.0457 7.3768,-62.2628 13.4124,-114.00988 13.4124,-114.99345 v -1.78833 h -222.1576 c -147.1686,0 -225.848,-0.28712 -233.0906,-0.85061 -32.8536,-2.55607 -59.7782,-9.36307 -77.3931,-19.5663 -3.7151,-2.15187 -8.7702,-6.28508 -13.7084,-11.20814 -6.9817,-6.96038 -8.2647,-8.71711 -11.9299,-16.3343 -7.4295,-15.4406 -9.593,-29.15572 -8.847,-56.08357 0.4875,-17.59836 1.3202,-25.63215 5.0562,-48.77672 1.3693,-8.48265 3.8775,-36.23812 7.6765,-84.94496 3.1035,-39.79001 6.2244,-75.6376 6.9352,-79.66131 3.7093,-20.99509 12.3923,-51.36227 19.617,-68.6063 11.3087,-26.99214 27.4501,-49.21688 43.5172,-59.9179 19.5031,-12.98935 48.4765,-20.94975 90.4888,-24.86156 16.7481,-1.55944 447.5377,-1.55092 464.149,0.009 43.1444,4.05202 69.2261,12.91745 85.3045,28.99586 11.1756,11.17556 18.431,27.9314 21.1822,48.91855 2.4834,18.94452 1.0965,46.91764 -3.4963,70.51841 -2.0351,10.45731 -2.3553,11.36423 -4.2302,11.98188 -4.1202,1.35722 -143.4287,33.10283 -143.7694,32.76215 -0.2753,-0.27534 12.4662,-68.57385 14.287,-76.58266 l 0.4158,-1.82895 H 7167.1277 6944.735 l -0.4017,1.82895 c -0.414,1.88449 -24.0371,220.50254 -24.0232,222.32007 0.01,0.81033 44.2459,1.01619 218.4667,1.01656 141.6978,3e-4 223.743,0.29881 233.4971,0.84952 42.9039,2.42233 71.6453,9.69906 88.5751,22.42544 10.2475,7.70313 19.4735,22.34601 24.0033,38.09629 4.1168,14.31449 4.8371,20.47589 4.8454,41.45639 0.01,19.94153 -0.436,25.04117 -4.0699,46.74005 -1.0857,6.48264 -6.0104,49.64604 -10.9438,95.91874 -9.1518,85.8386 -10.9086,99.0458 -15.849,119.1456 -11.1553,45.3848 -31.701,80.4094 -56.8914,96.9837 -24.6441,16.215 -59.7063,25.6408 -106.0795,28.5178 -15.9561,0.9899 -457.4089,0.9508 -473.0906,-0.042 z M 2524.3145,615.53259 c -6.64,-1.48659 -17.0446,-6.61282 -22.3539,-11.01349 -13.6861,-11.34384 -20.6254,-27.34991 -19.6852,-45.40538 0.7155,-13.74127 5.0039,-24.24819 13.8268,-33.87685 21.3469,-23.29639 57.12,-24.15803 79.3663,-1.91165 17.43,17.42996 20.9402,43.25762 8.9393,65.77371 -5.7564,10.79994 -17.2035,20.23715 -29.9213,24.6676 -5.8088,2.02355 -8.5323,2.48377 -15.9467,2.69466 -5.7626,0.16391 -10.8202,-0.16624 -14.2253,-0.9286 z"
       style="fill:#ffffff;fill-opacity:1;stroke:#ffffff;stroke-width:0.81287;stroke-opacity:1" />
  </g>
</svg>
