<svg width="112" height="36" viewBox="0 0 112 36" fill="white" xmlns="http://www.w3.org/2000/svg">
<g clip-path="url(#clip0_305_1004)">
<path d="M37.6122 32.611C37.5919 32.5913 37.5759 32.5676 37.565 32.5414C37.5542 32.5153 37.5488 32.4872 37.5492 32.4589V26.646C37.5466 26.5867 37.5677 26.5289 37.6078 26.4852C37.6277 26.4639 37.652 26.4472 37.679 26.4363C37.7061 26.4254 37.7352 26.4206 37.7643 26.4222H40.3535C41.0503 26.4222 41.5715 26.5754 41.917 26.8818C42.2614 27.1893 42.4342 27.6065 42.4342 28.1367C42.4409 28.3973 42.3729 28.6544 42.2381 28.8776C42.1033 29.1008 41.9074 29.2807 41.6736 29.396C41.9423 29.5254 42.1688 29.7283 42.3269 29.9812C42.4849 30.234 42.5681 30.5265 42.5667 30.8248C42.5763 31.0756 42.531 31.3255 42.4337 31.557C42.3365 31.7884 42.1898 31.9957 42.0039 32.1644C41.6294 32.5071 41.1061 32.6784 40.4339 32.6784H37.7643C37.7357 32.6782 37.7074 32.6722 37.6812 32.6606C37.655 32.649 37.6315 32.6321 37.6122 32.611ZM40.1927 28.9842C40.4462 29.0009 40.6966 28.921 40.8935 28.7604C40.9758 28.6849 41.0404 28.5922 41.0829 28.4889C41.1253 28.3857 41.1445 28.2743 41.139 28.1628C41.1453 28.0541 41.127 27.9453 41.0854 27.8447C41.0438 27.744 40.9801 27.6541 40.8989 27.5815C40.7381 27.4457 40.5023 27.3761 40.1927 27.3761H38.8084V28.9842H40.1927ZM40.2818 31.7168C40.4132 31.7248 40.545 31.7064 40.6692 31.6627C40.7935 31.619 40.9078 31.551 41.0054 31.4626C41.0914 31.3778 41.1588 31.2761 41.2033 31.1638C41.2479 31.0516 41.2685 30.9313 41.264 30.8106C41.2686 30.6896 41.2475 30.5689 41.2022 30.4566C41.1569 30.3442 41.0883 30.2427 41.001 30.1587C40.9039 30.071 40.7903 30.0033 40.6668 29.9597C40.5434 29.9161 40.4125 29.8973 40.2818 29.9045H38.8084V31.7081L40.2818 31.7168Z"/>
<path d="M45.1993 32.1471C44.7524 31.7349 44.5289 31.1127 44.5289 30.2804V26.646C44.5264 26.5867 44.5475 26.5289 44.5876 26.4852C44.6074 26.4639 44.6317 26.4472 44.6588 26.4363C44.6858 26.4254 44.7149 26.4206 44.744 26.4222H45.5654C45.595 26.4214 45.6244 26.4267 45.6518 26.4377C45.6792 26.4487 45.7041 26.4652 45.725 26.4861C45.7458 26.5071 45.7622 26.5321 45.7731 26.5596C45.7839 26.587 45.7891 26.6165 45.7882 26.646V30.2804C45.7882 30.7505 45.9001 31.1047 46.1239 31.343C46.3477 31.5813 46.6646 31.7001 47.0746 31.6994C47.4853 31.6994 47.8022 31.5806 48.0253 31.343C48.2484 31.1055 48.36 30.7512 48.36 30.2804V26.646C48.3589 26.6163 48.364 26.5867 48.3748 26.5591C48.3857 26.5314 48.402 26.5063 48.423 26.4852C48.4441 26.4643 48.4692 26.4479 48.4969 26.437C48.5245 26.4262 48.5541 26.4211 48.5838 26.4222H49.4052C49.4343 26.4208 49.4633 26.4257 49.4903 26.4366C49.5173 26.4475 49.5417 26.464 49.5617 26.4852C49.6009 26.5293 49.6216 26.587 49.6192 26.646V30.2804C49.6192 31.1141 49.3976 31.7364 48.9543 32.1471C48.511 32.5578 47.8873 32.7631 47.0833 32.7631C46.2699 32.7631 45.6419 32.5578 45.1993 32.1471Z"/>
<path d="M52.6507 32.5219C52.3095 32.3917 52.0094 32.1726 51.7814 31.8874C51.5912 31.6408 51.4823 31.3413 51.4696 31.0301C51.4698 30.9817 51.4889 30.9354 51.5228 30.9008C51.5396 30.8821 51.5602 30.8672 51.5833 30.8573C51.6064 30.8473 51.6314 30.8425 51.6565 30.8432H52.4692C52.5262 30.8402 52.5827 30.8559 52.63 30.8878C52.6764 30.9216 52.7159 30.964 52.7463 31.0127C52.8151 31.2262 52.9596 31.4071 53.1526 31.5212C53.4168 31.6712 53.7184 31.7425 54.0218 31.7266C54.4391 31.7266 54.7534 31.6567 54.9649 31.5169C55.0639 31.4575 55.1453 31.3729 55.2009 31.2717C55.2564 31.1705 55.2841 31.0564 55.2811 30.941C55.2833 30.8666 55.2702 30.7925 55.2425 30.7233C55.2148 30.6542 55.1733 30.5914 55.1203 30.539C54.9799 30.4117 54.814 30.3157 54.6336 30.2576C54.4163 30.1772 54.0936 30.0805 53.6655 29.9675C52.9629 29.8009 52.4478 29.5807 52.1204 29.3069C51.793 29.0331 51.6293 28.6401 51.6293 28.128C51.6245 27.7974 51.7245 27.4737 51.9151 27.2034C52.1228 26.9189 52.4057 26.698 52.7321 26.5656C53.1237 26.4031 53.5448 26.3239 53.9686 26.3331C54.41 26.3219 54.8482 26.4103 55.2507 26.5917C55.5747 26.737 55.8571 26.9611 56.0721 27.2436C56.2453 27.4662 56.3493 27.7349 56.3709 28.0161C56.3709 28.0645 56.3518 28.111 56.3177 28.1454C56.3008 28.1644 56.28 28.1794 56.2568 28.1896C56.2335 28.1997 56.2083 28.2047 56.1829 28.2041H55.3355C55.2795 28.2089 55.2235 28.1959 55.1753 28.167C55.1271 28.1382 55.0892 28.0949 55.0671 28.0433C55.0482 27.9428 55.0072 27.8478 54.947 27.7651C54.8869 27.6824 54.8091 27.6142 54.7194 27.5652C54.4852 27.4407 54.224 27.3756 53.9588 27.3756C53.6936 27.3756 53.4324 27.4407 53.1983 27.5652C53.108 27.6233 53.0346 27.7041 52.9852 27.7994C52.9358 27.8947 52.9123 28.0012 52.9169 28.1085C52.9121 28.2558 52.9633 28.3995 53.0603 28.5105C53.1853 28.6377 53.3382 28.734 53.5068 28.7919C53.7958 28.8997 54.0907 28.9908 54.3902 29.0646C54.8247 29.1523 55.2485 29.2871 55.6538 29.4666C55.9318 29.5866 56.1713 29.781 56.3459 30.0284C56.5047 30.2897 56.5825 30.5921 56.5697 30.8976C56.578 31.2581 56.4664 31.6112 56.2525 31.9015C56.0237 32.2002 55.7136 32.4266 55.3594 32.5534C54.9319 32.71 54.4791 32.7859 54.024 32.7773C53.5538 32.7846 53.0868 32.6978 52.6507 32.5219Z"/>
<path d="M58.544 32.611C58.5238 32.5912 58.5079 32.5675 58.4973 32.5414C58.4867 32.5152 58.4815 32.4872 58.482 32.4589V26.6363C58.4807 26.6073 58.4856 26.5784 58.4962 26.5514C58.5069 26.5244 58.5232 26.5 58.544 26.4798C58.5853 26.4416 58.6398 26.421 58.6961 26.4222H59.5533C59.5826 26.4193 59.6121 26.423 59.6398 26.4329C59.6674 26.4428 59.6926 26.4587 59.7134 26.4795C59.7341 26.5003 59.75 26.5254 59.76 26.5531C59.7699 26.5808 59.7735 26.6103 59.7706 26.6395V32.4611C59.7719 32.5174 59.7512 32.5719 59.7131 32.6132C59.6928 32.634 59.6684 32.6503 59.6415 32.6609C59.6145 32.6716 59.5856 32.6765 59.5566 32.6752H58.6993C58.6704 32.6759 58.6416 32.6706 58.6149 32.6595C58.5881 32.6485 58.5639 32.632 58.544 32.611Z"/>
<path d="M62.1164 32.611C62.096 32.5914 62.0798 32.5678 62.0689 32.5416C62.0581 32.5154 62.0528 32.4872 62.0534 32.4589V26.646C62.0509 26.5868 62.072 26.5289 62.1121 26.4852C62.1318 26.464 62.156 26.4474 62.1828 26.4365C62.2097 26.4256 62.2385 26.4207 62.2675 26.4222H62.965C63.018 26.421 63.0703 26.4345 63.116 26.4614C63.1617 26.4883 63.1989 26.5274 63.2236 26.5743L65.778 30.539V26.646C65.7766 26.6167 65.7809 26.5875 65.7908 26.5599C65.8007 26.5323 65.8159 26.5069 65.8356 26.4852C65.8556 26.464 65.8799 26.4474 65.9069 26.4365C65.9339 26.4256 65.963 26.4207 65.9921 26.4222H66.7602C66.7893 26.4222 66.8181 26.428 66.8449 26.4393C66.8717 26.4507 66.896 26.4672 66.9162 26.4881C66.9365 26.509 66.9524 26.5337 66.9629 26.5608C66.9734 26.588 66.9784 26.6169 66.9775 26.646V32.4502C66.9787 32.4798 66.9738 32.5094 66.9632 32.537C66.9525 32.5647 66.9364 32.5899 66.9156 32.611C66.8958 32.6311 66.8721 32.6469 66.8459 32.6576C66.8198 32.6682 66.7917 32.6735 66.7635 32.673H66.0605C66.0061 32.6754 65.9522 32.6625 65.9047 32.6358C65.8573 32.6091 65.8183 32.5697 65.7922 32.5219L63.2475 28.6463V32.4611C63.2484 32.5175 63.2274 32.572 63.1888 32.6132C63.1687 32.634 63.1443 32.6503 63.1173 32.661C63.0903 32.6717 63.0614 32.6765 63.0324 32.6751H62.2642C62.2365 32.6749 62.2092 32.6691 62.1838 32.6581C62.1584 32.6471 62.1355 32.6311 62.1164 32.611Z"/>
<path d="M69.32 32.611C69.2995 32.5914 69.2834 32.5678 69.2725 32.5416C69.2617 32.5154 69.2564 32.4872 69.257 32.4589V26.646C69.2561 26.5862 69.2788 26.5285 69.32 26.4852C69.34 26.464 69.3644 26.4474 69.3914 26.4366C69.4184 26.4257 69.4474 26.4208 69.4765 26.4222H73.4151C73.4447 26.4214 73.4741 26.4267 73.5015 26.4377C73.5289 26.4487 73.5538 26.4652 73.5747 26.4861C73.5955 26.5071 73.6119 26.5321 73.6228 26.5595C73.6336 26.587 73.6388 26.6164 73.6379 26.646V27.2457C73.6393 27.2747 73.6344 27.3037 73.6238 27.3307C73.6131 27.3576 73.5968 27.382 73.5759 27.4022C73.5319 27.4417 73.4742 27.4624 73.4151 27.4598H70.4815V29.0233H73.2141C73.2431 29.0233 73.2718 29.0291 73.2986 29.0403C73.3253 29.0516 73.3495 29.0681 73.3697 29.0889C73.39 29.1096 73.4059 29.1342 73.4165 29.1612C73.4271 29.1882 73.4322 29.217 73.4314 29.246V29.8089C73.4327 29.8378 73.4279 29.8668 73.4172 29.8937C73.4066 29.9207 73.3903 29.9451 73.3695 29.9653C73.3256 30.0049 73.2678 30.0256 73.2087 30.0229H70.4837V31.6396H73.4847C73.5437 31.6376 73.6012 31.6582 73.6455 31.6972C73.6663 31.7175 73.6825 31.7419 73.6932 31.7688C73.7039 31.7958 73.7087 31.8247 73.7074 31.8537V32.4611C73.7087 32.49 73.7039 32.519 73.6932 32.5459C73.6825 32.5729 73.6663 32.5973 73.6455 32.6175C73.6015 32.657 73.5437 32.6777 73.4847 32.6751H69.4743C69.4455 32.6758 69.4169 32.6705 69.3904 32.6594C69.3638 32.6484 69.3398 32.6319 69.32 32.611Z"/>
<path d="M76.5205 32.5219C76.1791 32.3922 75.8789 32.173 75.6513 31.8874C75.4603 31.6412 75.3509 31.3415 75.3384 31.0301C75.3386 30.9817 75.3577 30.9354 75.3916 30.9008C75.4085 30.882 75.4293 30.8671 75.4526 30.8572C75.4759 30.8472 75.5011 30.8425 75.5263 30.8432H76.3391C76.3957 30.8404 76.4518 30.856 76.4988 30.8878C76.5452 30.9216 76.5847 30.964 76.615 31.0127C76.6838 31.2262 76.8284 31.4071 77.0214 31.5212C77.2856 31.6712 77.5872 31.7424 77.8906 31.7266C78.3071 31.7266 78.6211 31.6567 78.8326 31.5169C78.9318 31.4576 79.0134 31.3731 79.0692 31.2719C79.1249 31.1707 79.1528 31.0565 79.1499 30.941C79.1518 30.8666 79.1385 30.7926 79.1108 30.7235C79.0832 30.6544 79.0418 30.5916 78.9891 30.539C78.8485 30.4119 78.6826 30.316 78.5023 30.2576C78.285 30.1772 77.9591 30.0805 77.5332 29.9675C76.8298 29.8009 76.3148 29.5807 75.9881 29.3069C75.6614 29.0331 75.4977 28.6401 75.497 28.128C75.4921 27.7974 75.5922 27.4737 75.7828 27.2034C75.9905 26.9189 76.2734 26.698 76.5998 26.5656C76.9914 26.4031 77.4125 26.3239 77.8363 26.3331C78.2777 26.3219 78.7159 26.4103 79.1184 26.5917C79.4423 26.737 79.7247 26.9611 79.9398 27.2436C80.113 27.4662 80.2169 27.7349 80.2386 28.0161C80.2386 28.0645 80.2195 28.111 80.1854 28.1454C80.1687 28.1643 80.1481 28.1793 80.125 28.1895C80.1019 28.1996 80.0769 28.2046 80.0517 28.2041H79.2075C79.1515 28.2089 79.0955 28.1959 79.0473 28.167C78.9991 28.1382 78.9613 28.0949 78.9391 28.0433C78.9202 27.9428 78.8792 27.8478 78.8191 27.7651C78.7589 27.6824 78.6812 27.6142 78.5914 27.5652C78.3572 27.4407 78.0961 27.3756 77.8309 27.3756C77.5656 27.3756 77.3045 27.4407 77.0703 27.5652C76.9801 27.6233 76.9066 27.7041 76.8572 27.7994C76.8079 27.8947 76.7843 28.0012 76.7889 28.1085C76.7841 28.2558 76.8353 28.3995 76.9323 28.5105C77.0577 28.6372 77.2105 28.7335 77.3789 28.7919C77.6681 28.8998 77.9635 28.9909 78.2633 29.0646C78.6978 29.1526 79.1215 29.2874 79.5269 29.4666C79.8044 29.587 80.0435 29.7813 80.2179 30.0284C80.3772 30.2895 80.4551 30.592 80.4418 30.8976C80.45 31.2581 80.3384 31.6112 80.1245 31.9015C79.8957 32.2002 79.5856 32.4266 79.2314 32.5534C78.8043 32.7099 78.3519 32.7858 77.8971 32.7773C77.4258 32.7849 76.9577 32.6981 76.5205 32.5219Z"/>
<path d="M83.1558 32.5219C82.8146 32.3917 82.5145 32.1726 82.2866 31.8874C82.0959 31.6411 81.9869 31.3414 81.9747 31.0301C81.975 30.9817 81.9941 30.9354 82.028 30.9008C82.0447 30.8821 82.0654 30.8672 82.0884 30.8573C82.1115 30.8473 82.1365 30.8425 82.1616 30.8433H82.9743C83.0313 30.8404 83.0877 30.856 83.1351 30.8878C83.1813 30.9219 83.2207 30.9643 83.2514 31.0128C83.3197 31.2264 83.4644 31.4074 83.6578 31.5212C83.9219 31.6714 84.2236 31.7426 84.527 31.7266C84.9442 31.7266 85.2582 31.6567 85.469 31.5169C85.5682 31.4576 85.6498 31.3731 85.7055 31.2719C85.7613 31.1707 85.7891 31.0565 85.7863 30.941C85.7884 30.8666 85.7753 30.7925 85.7476 30.7233C85.72 30.6542 85.6784 30.5914 85.6255 30.539C85.485 30.4117 85.3191 30.3157 85.1387 30.2576C84.9214 30.1772 84.5987 30.0805 84.1706 29.9675C83.4673 29.8009 82.9522 29.5807 82.6256 29.3069C82.2989 29.0331 82.1374 28.6401 82.141 28.128C82.1361 27.7974 82.2362 27.4737 82.4267 27.2034C82.6344 26.9189 82.9174 26.698 83.2438 26.5656C83.6353 26.4031 84.0564 26.324 84.4803 26.3331C84.9203 26.3231 85.357 26.4122 85.758 26.5939C86.0825 26.7388 86.3653 26.963 86.5805 27.2458C86.7537 27.4684 86.8577 27.7371 86.8793 28.0183C86.8793 28.0667 86.8602 28.1132 86.8261 28.1476C86.8092 28.1666 86.7884 28.1816 86.7652 28.1918C86.7419 28.2019 86.7167 28.2068 86.6913 28.2063H85.8438C85.7879 28.2111 85.7318 28.1981 85.6837 28.1692C85.6355 28.1404 85.5976 28.0971 85.5755 28.0455C85.5566 27.9448 85.5155 27.8497 85.4551 27.767C85.3948 27.6843 85.3168 27.6161 85.2267 27.5674C84.9926 27.4427 84.7314 27.3775 84.4661 27.3775C84.2009 27.3775 83.9397 27.4427 83.7056 27.5674C83.6152 27.6253 83.5416 27.706 83.4922 27.8014C83.4428 27.8967 83.4194 28.0034 83.4242 28.1107C83.4194 28.258 83.4706 28.4016 83.5676 28.5127C83.6926 28.6398 83.8455 28.7362 84.0141 28.7941C84.3031 28.9019 84.598 28.9929 84.8975 29.0668C85.332 29.1545 85.7558 29.2893 86.1611 29.4688C86.4391 29.5888 86.6786 29.7832 86.8532 30.0305C87.012 30.2918 87.0898 30.5943 87.077 30.8998C87.0853 31.2603 86.9737 31.6134 86.7598 31.9037C86.5307 32.2021 86.2207 32.4284 85.8667 32.5556C85.4382 32.7067 84.9854 32.777 84.5313 32.7631C84.0613 32.7753 83.5936 32.6933 83.1558 32.5219Z"/>
<path d="M12.1397 31.23C11.6843 30.9635 11.2485 30.6647 10.8359 30.3358C10.7522 30.2695 10.6696 30.2043 10.5881 30.1359C10.5066 30.0674 10.4523 30.0186 10.385 29.9588C10.3176 29.899 10.2263 29.8197 10.1492 29.7415C10.072 29.6633 10.0188 29.6165 9.95469 29.5535C9.89059 29.4905 9.80367 29.4068 9.73087 29.3308C9.65807 29.2547 9.60157 29.2015 9.53964 29.1363C9.47771 29.0711 9.39731 28.982 9.32234 28.9027C9.24737 28.8234 9.20391 28.7625 9.14524 28.6919C9.08656 28.6213 9.01051 28.5311 8.94532 28.4474C8.88012 28.3638 8.83666 28.2997 8.77799 28.2301C8.71932 28.1606 8.65087 28.0628 8.59002 27.977C8.52918 27.8911 8.48137 27.8205 8.4303 27.7423C8.37924 27.6641 8.31187 27.5695 8.25537 27.4815C8.19888 27.3935 8.15433 27.3175 8.10435 27.2349C8.05437 27.1523 7.9957 27.0567 7.94137 26.9654C7.88704 26.8742 7.84684 26.7938 7.79904 26.7079C7.75123 26.6221 7.6969 26.5254 7.6491 26.4319C7.60129 26.3385 7.55891 26.2505 7.51437 26.1603C7.46982 26.0701 7.42093 25.9745 7.37638 25.8789C7.33183 25.7833 7.29163 25.6866 7.24926 25.5888C7.20688 25.491 7.16559 25.4041 7.12648 25.3096C7.07976 25.2009 7.03738 25.0836 6.99284 24.9706C6.9309 24.8076 6.87006 24.6446 6.81247 24.4784C6.77119 24.3621 6.7299 24.2459 6.69078 24.1274C6.65927 24.0296 6.63211 23.9308 6.60169 23.833C6.57127 23.7352 6.53541 23.6157 6.5039 23.507C6.47239 23.3984 6.44957 23.3017 6.4235 23.1985C6.39742 23.0952 6.36483 22.9811 6.33875 22.8725C6.31267 22.7638 6.28986 22.6552 6.26704 22.5531C6.24422 22.4509 6.21706 22.3358 6.19424 22.2271C6.17143 22.1185 6.15187 22.0098 6.13122 21.8946C6.11058 21.7795 6.08994 21.6773 6.07147 21.5687C6.053 21.46 6.0367 21.3394 6.01931 21.2253C6.00193 21.1112 5.98563 21.008 5.97042 20.8994C5.95521 20.7907 5.94217 20.6636 5.92805 20.5463C5.91392 20.4289 5.90197 20.3289 5.8911 20.2203C5.88024 20.1116 5.86937 19.978 5.85851 19.8563C5.84764 19.7346 5.84004 19.639 5.83243 19.5249C5.82483 19.4108 5.81831 19.275 5.81179 19.1501C5.80527 19.0251 5.79984 18.9328 5.79549 18.8187C5.79549 18.6905 5.78897 18.5623 5.78571 18.433C5.78571 18.3243 5.78571 18.2157 5.78571 18.107C5.78571 17.9755 5.78571 17.8441 5.78571 17.7115C5.78571 17.6029 5.78571 17.4942 5.78571 17.3856C5.78571 17.2508 5.7944 17.115 5.79984 16.9792C5.79984 16.8706 5.80853 16.7619 5.81396 16.6532C5.8212 16.5142 5.8299 16.3751 5.84004 16.236C5.84764 16.1274 5.85525 16.0187 5.86394 15.9101C5.87481 15.7677 5.88784 15.6243 5.90197 15.4809C5.91283 15.3722 5.92261 15.2636 5.93456 15.1636C5.95086 15.0169 5.96825 14.8692 5.98672 14.7225C5.99976 14.6138 6.01279 14.515 6.02692 14.4107C6.04756 14.2596 6.06929 14.1086 6.0932 13.9576C6.10841 13.8565 6.12362 13.7544 6.141 13.6523C6.16599 13.498 6.19316 13.3426 6.22141 13.1872C6.23879 13.0884 6.25726 12.9895 6.27573 12.8895C6.30615 12.7309 6.33875 12.5723 6.37135 12.4126C6.3909 12.3159 6.41155 12.2202 6.43328 12.1235C6.53324 11.6629 6.64298 11.2011 6.76684 10.7371C6.78141 10.6861 6.77734 10.6314 6.75536 10.5831C6.73337 10.5347 6.6949 10.4958 6.64683 10.4732C6.59875 10.4506 6.54421 10.4458 6.49294 10.4597C6.44168 10.4737 6.39704 10.5054 6.367 10.5492C6.19642 10.7958 6.02909 11.049 5.86611 11.3097C4.67094 13.1123 2.7717 16.3175 1.99375 18.0983L1.9818 18.1298C-1.12457 24.5773 -0.543277 31.405 3.45621 34.181C3.61267 34.2821 3.76695 34.3853 3.92993 34.4787C4.00164 34.52 4.07444 34.558 4.14724 34.5982C7.28728 36.2606 11.4269 35.2741 15.0364 32.3861C14.021 32.1396 13.0458 31.7503 12.1397 31.23Z"/>
<path d="M34.2645 7.02016C34.1602 6.80285 34.0483 6.59207 33.9288 6.3878C32.2479 3.47592 29.3436 1.55061 25.7603 0.640101C25.6929 0.622752 25.6223 0.621296 25.5542 0.635847C25.4861 0.650398 25.4223 0.680559 25.3679 0.723955C25.3134 0.76735 25.2698 0.822796 25.2404 0.885924C25.211 0.949053 25.1967 1.01814 25.1986 1.08775C25.2441 3.38718 25.0651 5.68558 24.664 7.95022C24.2393 10.3809 23.5609 12.7604 22.6398 15.0496C18.912 24.2665 11.7094 30.1522 4.6481 28.9027C4.50251 28.8766 4.35909 28.8451 4.21349 28.8136C3.82972 28.7212 3.46098 28.5749 3.11828 28.379C0.460646 26.8448 -0.0500191 22.6498 1.76013 18.6003C0.473684 21.4535 -0.101086 24.3589 0.0216913 26.9274C0.165112 30.0696 1.33747 32.7273 3.49856 34.2071C3.64307 34.3006 3.78866 34.394 3.93969 34.4809C3.99836 34.5146 4.05812 34.5461 4.11788 34.5787C11.8061 38.8292 23.308 33.0815 29.9152 21.6371C32.6369 16.9227 34.1015 11.9736 34.3623 7.46455C34.3694 7.31039 34.3356 7.1571 34.2645 7.02016ZM4.44166 34.7428C4.33301 34.6928 4.22436 34.6341 4.10919 34.5798C4.21784 34.6341 4.32975 34.6884 4.44166 34.7428Z" fill="url(#paint0_linear_305_1004)"/>
<path d="M76.6736 10.2645C75.4025 10.2645 74.16 10.6415 73.1031 11.3476C72.0462 12.0538 71.2225 13.0575 70.736 14.2319C70.2496 15.4062 70.1223 16.6984 70.3703 17.9451C70.6183 19.1918 71.2304 20.3369 72.1292 21.2357C73.028 22.1345 74.1731 22.7466 75.4198 22.9946C76.6665 23.2426 77.9587 23.1153 79.133 22.6289C80.3074 22.1424 81.3111 21.3187 82.0173 20.2618C82.7235 19.205 83.1004 17.9624 83.1004 16.6913C83.1005 15.8473 82.9344 15.0115 82.6115 14.2317C82.2885 13.4519 81.8151 12.7434 81.2183 12.1466C80.6215 11.5498 79.913 11.0764 79.1332 10.7534C78.3534 10.4305 77.5176 10.2644 76.6736 10.2645ZM76.6736 20.179C75.9835 20.179 75.309 19.9744 74.7352 19.591C74.1614 19.2076 73.7143 18.6626 73.4502 18.0251C73.1862 17.3875 73.1172 16.686 73.2519 16.0092C73.3866 15.3324 73.719 14.7107 74.207 14.2229C74.695 13.735 75.3168 13.4028 75.9936 13.2683C76.6705 13.1338 77.372 13.2031 78.0095 13.4673C78.647 13.7315 79.1918 14.1788 79.575 14.7527C79.9582 15.3266 80.1626 16.0012 80.1624 16.6913C80.163 17.1498 80.0732 17.6039 79.8981 18.0276C79.723 18.4513 79.4661 18.8364 79.142 19.1607C78.818 19.485 78.4332 19.7423 78.0096 19.9178C77.5861 20.0933 77.1321 20.1835 76.6736 20.1834V20.179Z"/>
<path d="M90.6278 10.2645C89.3567 10.2643 88.114 10.6411 87.057 11.3471C86 12.0532 85.1761 13.0568 84.6895 14.2311C84.2029 15.4055 84.0755 16.6977 84.3233 17.9444C84.5712 19.1912 85.1832 20.3364 86.0819 21.2353C86.9807 22.1342 88.1258 22.7464 89.3725 22.9945C90.6192 23.2426 91.9115 23.1154 93.0859 22.629C94.2603 22.1426 95.2641 21.3188 95.9703 20.2619C96.6766 19.205 97.0535 17.9624 97.0535 16.6913C97.0536 15.8474 96.8875 15.0117 96.5647 14.232C96.2418 13.4522 95.7685 12.7437 95.1718 12.147C94.5752 11.5502 93.8667 11.0767 93.0871 10.7538C92.3074 10.4308 91.4717 10.2645 90.6278 10.2645ZM90.6278 20.179C89.9377 20.1793 89.263 19.9748 88.6891 19.5915C88.1152 19.2082 87.6679 18.6634 87.4037 18.0258C87.1395 17.3883 87.0703 16.6867 87.2049 16.0098C87.3395 15.333 87.6718 14.7112 88.1598 14.2232C88.6477 13.7353 89.2695 13.403 89.9464 13.2684C90.6232 13.1338 91.3248 13.203 91.9623 13.4672C92.5999 13.7314 93.1448 14.1787 93.528 14.7526C93.9113 15.3265 94.1158 16.0012 94.1156 16.6913C94.116 17.1496 94.0261 17.6036 93.851 18.0272C93.6759 18.4508 93.4191 18.8357 93.0952 19.16C92.7713 19.4843 92.3867 19.7416 91.9634 19.9172C91.54 20.0928 91.0862 20.1832 90.6278 20.1834V20.179Z"/>
<path d="M104.948 10.2645C103.71 10.2625 102.499 10.62 101.46 11.2935V8.52068C101.46 8.13108 101.306 7.75744 101.03 7.48195C100.755 7.20646 100.381 7.0517 99.9914 7.0517H99.0733C99.001 7.0517 98.9294 7.06595 98.8625 7.09363C98.7957 7.12131 98.735 7.16189 98.6838 7.21304C98.6326 7.26419 98.5921 7.32492 98.5644 7.39176C98.5367 7.45859 98.5225 7.53022 98.5225 7.60256V8.52068V21.648C98.5225 22.0367 98.6765 22.4095 98.9508 22.6848C99.2251 22.9602 99.5973 23.1156 99.986 23.117H100.912C101.056 23.1147 101.194 23.0557 101.296 22.9527C101.398 22.8497 101.455 22.7109 101.455 22.5661V22.0881C102.294 22.6301 103.248 22.969 104.241 23.0777C105.235 23.1865 106.239 23.0622 107.176 22.7147C108.113 22.3672 108.956 21.806 109.637 21.0758C110.319 20.3456 110.822 19.4665 111.104 18.5083C111.387 17.55 111.442 16.539 111.266 15.5557C111.089 14.5723 110.686 13.6436 110.088 12.8433C109.49 12.0431 108.713 11.3933 107.82 10.9457C106.927 10.498 105.942 10.2648 104.943 10.2645H104.948ZM104.948 20.1791C104.258 20.1795 103.583 19.9752 103.009 19.5921C102.435 19.2089 101.988 18.6641 101.723 18.0266C101.459 17.3891 101.39 16.6875 101.524 16.0105C101.658 15.3336 101.991 14.7117 102.479 14.2236C102.967 13.7356 103.588 13.4031 104.265 13.2685C104.942 13.1338 105.644 13.2029 106.281 13.4671C106.919 13.7313 107.464 14.1786 107.847 14.7525C108.231 15.3264 108.435 16.0012 108.435 16.6913C108.435 17.1496 108.346 17.6035 108.171 18.0271C107.996 18.4507 107.739 18.8356 107.415 19.16C107.091 19.4843 106.707 19.7416 106.284 19.9172C105.86 20.0928 105.406 20.1833 104.948 20.1834V20.1791Z"/>
<path d="M64.3731 10.2645C63.6458 10.2642 62.9298 10.4441 62.289 10.788C61.6481 11.1319 61.1025 11.6292 60.7007 12.2355C60.3434 11.6963 59.8717 11.2425 59.3191 10.9062C58.7666 10.57 58.1468 10.3595 57.5038 10.2898C56.8607 10.2201 56.2103 10.2929 55.5985 10.503C54.9868 10.713 54.4288 11.0553 53.9643 11.5053C53.8483 11.2462 53.6598 11.0261 53.4215 10.8719C53.1832 10.7176 52.9052 10.6357 52.6213 10.6361H51.7032C51.5571 10.6361 51.417 10.6941 51.3137 10.7975C51.2104 10.9008 51.1523 11.0409 51.1523 11.187V12.1051V21.6524C51.1535 22.0404 51.3082 22.4123 51.5826 22.6867C51.857 22.9612 52.2289 23.1158 52.617 23.117H53.5438C53.6885 23.1147 53.8265 23.0557 53.9281 22.9527C54.0297 22.8496 54.0868 22.7108 54.087 22.5661V21.648V15.3647C54.087 14.7912 54.3148 14.2412 54.7203 13.8358C55.1258 13.4303 55.6758 13.2025 56.2492 13.2025H56.3318C56.9052 13.2025 57.4552 13.4303 57.8607 13.8358C58.2662 14.2412 58.494 14.7912 58.494 15.3647V18.8263V21.6513C58.4943 21.8442 58.5326 22.0352 58.6067 22.2133C58.6809 22.3915 58.7895 22.5532 58.9262 22.6894C59.0629 22.8255 59.2252 22.9333 59.4036 23.0067C59.5821 23.0801 59.7733 23.1176 59.9662 23.117H60.8843C61.0304 23.117 61.1705 23.0589 61.2738 22.9556C61.3771 22.8523 61.4352 22.7122 61.4352 22.5661V21.648V15.3647C61.4352 14.7912 61.663 14.2412 62.0685 13.8358C62.474 13.4303 63.0239 13.2025 63.5974 13.2025H63.6799C63.9639 13.2023 64.2451 13.2581 64.5074 13.3666C64.7698 13.4752 65.0083 13.6343 65.2091 13.835C65.41 14.0357 65.5694 14.2739 65.6782 14.5362C65.787 14.7985 65.8431 15.0796 65.8432 15.3636V21.648C65.8431 21.8408 65.8809 22.0317 65.9545 22.2098C66.0282 22.388 66.1362 22.5499 66.2724 22.6863C66.4086 22.8227 66.5703 22.9309 66.7483 23.0048C66.9264 23.0787 67.1172 23.1168 67.31 23.117H68.2335C68.3059 23.117 68.3775 23.1027 68.4444 23.0751C68.5112 23.0474 68.5719 23.0068 68.6231 22.9556C68.6742 22.9045 68.7148 22.8438 68.7425 22.7769C68.7702 22.7101 68.7844 22.6385 68.7844 22.5661V21.648V14.6715C68.7846 14.0923 68.6705 13.5188 68.4488 12.9838C68.2271 12.4488 67.9021 11.9627 67.4924 11.5534C67.0827 11.1441 66.5963 10.8196 66.0611 10.5984C65.5259 10.3773 64.9523 10.2638 64.3731 10.2645Z"/>
<path d="M47.8493 10.2645H46.9312C46.7851 10.2645 46.645 10.3226 46.5417 10.4259C46.4384 10.5292 46.3804 10.6693 46.3804 10.8154V11.7335V17.24C46.3804 18.0181 46.0713 18.7642 45.5211 19.3144C44.971 19.8645 44.2248 20.1736 43.4468 20.1736C42.6687 20.1736 41.9225 19.8645 41.3724 19.3144C40.8222 18.7642 40.5132 18.0181 40.5132 17.24V11.7335C40.5129 11.344 40.358 10.9705 40.0826 10.6951C39.8072 10.4197 39.4337 10.2648 39.0442 10.2645H38.1261C37.98 10.2645 37.8398 10.3226 37.7365 10.4259C37.6332 10.5292 37.5752 10.6693 37.5752 10.8154V11.7335V17.24C37.5962 18.7844 38.2245 20.2585 39.324 21.3432C40.4236 22.4279 41.906 23.036 43.4506 23.036C44.9951 23.036 46.4776 22.4279 47.5771 21.3432C48.6767 20.2585 49.3049 18.7844 49.3259 17.24V11.7335C49.3258 11.54 49.2874 11.3484 49.2131 11.1698C49.1387 10.9911 49.0299 10.8289 48.8927 10.6924C48.7555 10.5559 48.5927 10.4479 48.4137 10.3745C48.2346 10.301 48.0429 10.2637 47.8493 10.2645Z"/>
</g>
<defs>
<linearGradient id="paint0_linear_305_1004" x1="36.87" y1="5.69895" x2="1.70905" y2="32.5893" gradientUnits="userSpaceOnUse">
<stop offset="0.03" stop-color="#00D5EB"/>
<stop offset="1" stop-color="#0957D4"/>
</linearGradient>
<clipPath id="clip0_305_1004">
<rect width="111.374" height="35.35" fill="white" transform="translate(0 0.625977)"/>
</clipPath>
</defs>
</svg>
